<svg xmlns="http://www.w3.org/2000/svg" viewBox="0 0 120 180" width="120" height="180">
  <defs>
    <linearGradient id="grad" x1="0%" y1="0%" x2="100%" y2="100%">
      <stop offset="0%" style="stop-color:#1e293b;stop-opacity:1" />
      <stop offset="100%" style="stop-color:#0f172a;stop-opacity:1" />
    </linearGradient>
    <linearGradient id="glow" x1="0%" y1="0%" x2="0%" y2="100%">
      <stop offset="0%" style="stop-color:#6366f1;stop-opacity:0.25" />
      <stop offset="100%" style="stop-color:#a855f7;stop-opacity:0" />
    </linearGradient>
  </defs>
  <!-- Background Card -->
  <rect width="120" height="180" rx="12" fill="url(#grad)" stroke="rgba(255,255,255,0.06)" stroke-width="1.5" />
  <!-- Gloss overlay -->
  <rect width="120" height="180" rx="12" fill="url(#glow)" />
  
  <!-- Book Icon Group -->
  <g transform="translate(36, 60)" opacity="0.4">
    <!-- Outer pages/body -->
    <path d="M6 5C6 2.23858 8.23858 0 11 0H42C44.7614 0 47 2.23858 47 5V48C47 50.7614 44.7614 53 42 53H11C8.23858 53 6 50.7614 6 48V5Z" fill="#818cf8" />
    <path d="M0 8C0 5.23858 2.23858 3 5 3H40C42.7614 3 45 5.23858 45 8V51C45 53.7614 42.7614 56 40 56H5C2.23858 56 0 53.7614 0 51V8Z" fill="#4f46e5" />
    <!-- Book Spine Overlay -->
    <rect x="3" y="3" width="4" height="53" fill="#312e81" opacity="0.5" />
    <!-- Gold emblem accent -->
    <circle cx="22" cy="24" r="6" fill="#a855f7" opacity="0.8" />
    <!-- Bookmark ribbon -->
    <path d="M30 3L30 25L26 21L22 25L22 3" fill="#f43f5e" />
    <!-- Pages lines -->
    <line x1="12" y1="36" x2="33" y2="36" stroke="#c084fc" stroke-width="2" stroke-linecap="round" opacity="0.6"/>
    <line x1="12" y1="42" x2="28" y2="42" stroke="#c084fc" stroke-width="2" stroke-linecap="round" opacity="0.6"/>
  </g>

  <!-- Title Text Placeholder -->
  <rect x="25" y="132" width="70" height="6" rx="3" fill="#64748b" opacity="0.3" />
  <rect x="40" y="144" width="40" height="5" rx="2.5" fill="#64748b" opacity="0.2" />
</svg>
